<svg xmlns="http://www.w3.org/2000/svg" viewBox="0 0 1024 1024" role="img" aria-labelledby="title desc">
  <title id="title">Announcements megaphone icon</title><desc id="desc">Premium pink semi-gloss 3D megaphone with white cone and handle.</desc>
  <defs><linearGradient id="pink" x1="24%" y1="19%" x2="75%" y2="85%"><stop stop-color="#ff6cad"/><stop offset=".47" stop-color="#ff1480"/><stop offset="1" stop-color="#c70061"/></linearGradient><linearGradient id="hot" x1="0" y1="0" x2="1" y2="1"><stop stop-color="#ff85bd"/><stop offset=".55" stop-color="#ff2389"/><stop offset="1" stop-color="#dd006a"/></linearGradient><radialGradient id="cone" cx="62%" cy="38%" r="68%"><stop stop-color="#fff"/><stop offset=".6" stop-color="#fff5f7"/><stop offset="1" stop-color="#e8d0d8"/></radialGradient><filter id="shadow" x="-20%" y="-20%" width="140%" height="150%"><feDropShadow dx="0" dy="18" stdDeviation="18" flood-color="#59002e" flood-opacity=".38"/><feDropShadow dx="0" dy="3" stdDeviation="3" flood-color="#000" flood-opacity=".25"/></filter><filter id="inset"><feGaussianBlur stdDeviation="2" result="b"/><feSpecularLighting in="b" surfaceScale="3" specularConstant=".55" specularExponent="18" lighting-color="#fff"><fePointLight x="180" y="120" z="220"/></feSpecularLighting><feComposite in2="SourceAlpha" operator="in"/><feComposite in2="SourceGraphic" operator="arithmetic" k2="1" k3="1"/></filter></defs>
  <g filter="url(#shadow)" transform="translate(15 8)">
    <path d="M178 408c0-56 45-102 101-102h177c44 0 73 38 71 78v155c1 45-31 78-72 78H277c-55 0-99-44-99-99z" fill="url(#pink)"/>
    <path d="M232 305c-41 8-72 45-72 89v132c0 39 25 73 60 88-20-55-22-235 12-309z" fill="#d60068" opacity=".72"/>
    <path d="M459 366c156-45 247-120 322-202 43-46 108-18 115 51v527c-6 71-75 96-117 49-77-84-167-158-320-204z" fill="url(#hot)"/>
    <path d="M774 152c83-28 157 22 177 126 31 158 27 340-2 482-22 108-96 154-177 117 42-187 43-512 2-725z" fill="url(#pink)"/>
    <ellipse cx="828" cy="515" rx="118" ry="321" fill="url(#hot)"/>
    <ellipse cx="839" cy="515" rx="82" ry="261" fill="url(#cone)"/>
    <ellipse cx="839" cy="515" rx="67" ry="229" fill="none" stroke="#f6e5e9" stroke-width="24" opacity=".75"/>
    <rect x="292" y="568" width="126" height="314" rx="44" fill="url(#hot)" transform="rotate(-5 355 725)"/>
    <rect x="386" y="610" width="38" height="62" rx="19" fill="#fff3ee" stroke="#e4b5bf" stroke-width="2"/>
    <rect x="211" y="425" width="58" height="14" rx="7" fill="#bb0057"/><rect x="211" y="455" width="64" height="14" rx="7" fill="#bb0057"/><rect x="211" y="485" width="64" height="14" rx="7" fill="#bb0057"/>
    <path d="M773 184c-38 170-38 488 0 656" fill="none" stroke="#ff73b1" stroke-width="18" opacity=".75"/>
    <path d="M515 384c109-28 198-86 284-176" fill="none" stroke="#ff8fc5" stroke-width="14" stroke-linecap="round" opacity=".55"/>
    <path d="M325 604c4 85 14 156 45 218" fill="none" stroke="#ff99c9" stroke-width="15" stroke-linecap="round" opacity=".78"/>
  </g>
</svg>
