<svg xmlns="http://www.w3.org/2000/svg" viewBox="0 0 1024 1024" role="img" aria-labelledby="title desc"><title id="title">Flashcards icon</title><desc id="desc">Stack of yellow, white, and blue rounded flashcards with graduation cap and study lines.</desc><defs><linearGradient id="gold" x1="22%" y1="16%" x2="82%" y2="90%"><stop stop-color="#ffe677"/><stop offset=".45" stop-color="#ffc533"/><stop offset="1" stop-color="#d98900"/></linearGradient><linearGradient id="blue" x1="0" y1="0" x2="1" y2="1"><stop stop-color="#7fddff"/><stop offset="1" stop-color="#168cc7"/></linearGradient><filter id="sh" x="-18%" y="-18%" width="136%" height="145%"><feDropShadow dx="0" dy="18" stdDeviation="18" flood-color="#5b3800" flood-opacity=".35"/><feDropShadow dx="0" dy="4" stdDeviation="4" flood-opacity=".2"/></filter></defs><g filter="url(#sh)"><rect x="205" y="191" width="650" height="555" rx="40" fill="url(#blue)" transform="rotate(2 530 468)"/><rect x="150" y="226" width="690" height="548" rx="42" fill="#fffdf7"/><rect x="128" y="267" width="740" height="535" rx="44" fill="url(#gold)"/><rect x="144" y="282" width="708" height="503" rx="35" fill="none" stroke="#ffdc66" stroke-width="22" opacity=".9"/><path d="M140 760h724c-10 33-30 50-62 50H198c-28 0-47-17-58-50z" fill="#a96500" opacity=".42"/><g filter="url(#sh)" opacity=".92"><path d="M363 360l105-43 104 43-104 43z" fill="#fff"/><path d="M405 382v51c48 33 84 32 127 0v-51l-64 26z" fill="#fff"/><path d="M382 383l-15 57 12 32 20-9-7-25 9-39z" fill="#fff"/><path d="M622 335c-35 0-59 21-62 53h45c2-10 9-16 20-16 12 0 21 8 21 20 0 29-42 24-42 74h44c0-31 48-35 48-78 0-32-28-53-74-53zm3 148c-16 0-28 12-28 28s12 28 28 28 28-12 28-28-12-28-28-28z" fill="#fff"/></g><g fill="#fff7ea" stroke="#c57d00" stroke-width="2"><rect x="240" y="492" width="544" height="19" rx="9"/><rect x="240" y="551" width="544" height="19" rx="9"/><rect x="240" y="610" width="544" height="19" rx="9"/><rect x="284" y="670" width="456" height="19" rx="9"/></g><path d="M175 292c-22 126-22 331 0 456" fill="none" stroke="#fff09f" stroke-width="12" opacity=".65"/><path d="M205 254h617" stroke="#fff" stroke-width="24" stroke-linecap="round" opacity=".8"/></g></svg>
