<svg xmlns="http://www.w3.org/2000/svg" viewBox="0 0 1536 1024" role="img" aria-labelledby="title desc"><title id="title">MCQ Sets checklist icon</title><desc id="desc">Bright green rounded checklist card with four checked boxes and answer lines.</desc><defs><linearGradient id="g" x1="21%" y1="13%" x2="82%" y2="92%"><stop stop-color="#76ff50"/><stop offset=".45" stop-color="#25c820"/><stop offset="1" stop-color="#02701f"/></linearGradient><filter id="s" x="-16%" y="-20%" width="132%" height="145%"><feDropShadow dx="0" dy="20" stdDeviation="18" flood-color="#003d10" flood-opacity=".45"/><feDropShadow dx="0" dy="4" stdDeviation="4" flood-opacity=".28"/></filter></defs><g filter="url(#s)"><rect x="432" y="152" width="675" height="708" rx="70" fill="#00701d"/><rect x="418" y="134" width="666" height="704" rx="68" fill="url(#g)"/><rect x="441" y="158" width="620" height="655" rx="50" fill="none" stroke="#b2ff8e" stroke-width="14" opacity=".75"/><path d="M458 174c139-19 454-16 578 0" stroke="#e3ffd8" stroke-width="10" stroke-linecap="round" opacity=".75"/><g fill="#eefcef" stroke="#064b20" stroke-width="3"><rect x="508" y="228" width="121" height="121" rx="12"/><rect x="508" y="366" width="121" height="121" rx="12"/><rect x="508" y="505" width="121" height="121" rx="12"/><rect x="508" y="644" width="121" height="121" rx="12"/><rect x="674" y="276" width="340" height="30" rx="9"/><rect x="674" y="414" width="340" height="30" rx="9"/><rect x="674" y="553" width="340" height="30" rx="9"/><rect x="674" y="692" width="340" height="30" rx="9"/></g><g fill="none" stroke="#f4fff2" stroke-width="34" stroke-linecap="round" stroke-linejoin="round"><path d="M542 284l40 43 86-89"/><path d="M542 422l40 43 86-89"/><path d="M542 561l40 43 86-89"/><path d="M542 700l40 43 86-89"/></g></g></svg>
