<svg xmlns="http://www.w3.org/2000/svg" viewBox="0 0 1024 1024" role="img" aria-labelledby="title desc"><title id="title">PYQ Papers document icon</title><desc id="desc">Blue document with folded page corner, raised PYQ text, paper lines, and thick edges.</desc><defs><linearGradient id="b" x1="20%" y1="10%" x2="82%" y2="93%"><stop stop-color="#1594ff"/><stop offset=".48" stop-color="#006dea"/><stop offset="1" stop-color="#003a9b"/></linearGradient><filter id="s" x="-20%" y="-20%" width="140%" height="145%"><feDropShadow dx="0" dy="18" stdDeviation="18" flood-color="#001b52" flood-opacity=".42"/><feDropShadow dx="0" dy="4" stdDeviation="4" flood-opacity=".25"/></filter></defs><g filter="url(#s)"><path d="M187 154h498l153 154v536c0 46-37 83-83 83H187c-46 0-83-37-83-83V237c0-46 37-83 83-83z" fill="#003c9f"/><path d="M205 130h494l148 149v530c0 46-37 83-83 83H205c-46 0-83-37-83-83V213c0-46 37-83 83-83z" fill="url(#b)"/><path d="M699 130v101c0 42 34 76 76 76h72z" fill="#eef8ff"/><path d="M713 145l134 134h-77c-31 0-57-25-57-57z" fill="#fff" opacity=".75"/><rect x="214" y="220" width="348" height="28" rx="14" fill="#e9f6ff"/><rect x="214" y="272" width="348" height="28" rx="14" fill="#e9f6ff"/><text x="510" y="556" text-anchor="middle" font-family="Arial Black, Arial, sans-serif" font-size="214" font-weight="900" fill="#f9fcff" stroke="#d7eaff" stroke-width="6">PYQ</text><path d="M162 823h620" stroke="#b7d8ee" stroke-width="18" stroke-linecap="round" opacity=".9"/><path d="M133 799c204 16 457 17 682 0" fill="none" stroke="#54aaff" stroke-width="8" opacity=".65"/><path d="M145 167c-24 143-22 492 0 657" fill="none" stroke="#69b7ff" stroke-width="13" stroke-linecap="round" opacity=".5"/></g></svg>
