<svg xmlns="http://www.w3.org/2000/svg" viewBox="0 0 1024 1024" role="img" aria-labelledby="title desc"><title id="title">Revision Sheets icon</title><desc id="desc">Stacked lavender revision sheets with white summary lines and colored highlights.</desc><defs><linearGradient id="p" x1="24%" y1="13%" x2="80%" y2="94%"><stop stop-color="#d8c5ff"/><stop offset=".55" stop-color="#b69cff"/><stop offset="1" stop-color="#7252c7"/></linearGradient><filter id="s" x="-20%" y="-20%" width="140%" height="145%"><feDropShadow dx="0" dy="18" stdDeviation="17" flood-color="#281568" flood-opacity=".42"/><feDropShadow dx="0" dy="4" stdDeviation="4" flood-opacity=".25"/></filter></defs><g filter="url(#s)"><rect x="190" y="150" width="620" height="706" rx="42" fill="#6d4bc0" transform="rotate(-4 500 503)"/><rect x="250" y="158" width="620" height="706" rx="42" fill="#876adc" transform="rotate(5 560 511)"/><rect x="213" y="130" width="620" height="706" rx="45" fill="#7d5fd1"/><rect x="230" y="112" width="586" height="706" rx="45" fill="url(#p)"/><rect x="249" y="133" width="548" height="660" rx="34" fill="none" stroke="#eee8ff" stroke-width="9" opacity=".8"/><g filter="url(#s)"><rect x="294" y="263" width="438" height="18" rx="4" fill="#f6f3ff"/><rect x="294" y="327" width="438" height="18" rx="4" fill="#f6f3ff"/><rect x="414" y="374" width="318" height="25" rx="4" fill="#f6f3ff"/><rect x="294" y="431" width="438" height="18" rx="4" fill="#f6f3ff"/><rect x="294" y="533" width="438" height="18" rx="4" fill="#f6f3ff"/><rect x="294" y="631" width="438" height="18" rx="4" fill="#f6f3ff"/><rect x="294" y="374" width="104" height="25" rx="4" fill="#6ec8ff"/><rect x="294" y="484" width="262" height="24" rx="4" fill="#ffd849"/><rect x="294" y="582" width="202" height="24" rx="4" fill="#ff76a6"/></g><path d="M241 117c-24 126-22 523 0 668" fill="none" stroke="#e6dcff" stroke-width="12" stroke-linecap="round" opacity=".55"/></g></svg>
