<svg xmlns="http://www.w3.org/2000/svg" viewBox="0 0 1024 1024" role="img" aria-labelledby="title desc"><title id="title">Study Notes notebook icon</title><desc id="desc">Orange front-facing notebook with rounded spine, white pages, and three raised white lines.</desc><defs><linearGradient id="o" x1="20%" y1="12%" x2="82%" y2="92%"><stop stop-color="#ff8a2e"/><stop offset=".5" stop-color="#ff641b"/><stop offset="1" stop-color="#ce3600"/></linearGradient><filter id="s" x="-20%" y="-20%" width="140%" height="145%"><feDropShadow dx="0" dy="18" stdDeviation="18" flood-color="#4e1600" flood-opacity=".38"/><feDropShadow dx="0" dy="4" stdDeviation="4" flood-opacity=".23"/></filter></defs><g filter="url(#s)"><rect x="225" y="165" width="630" height="682" rx="56" fill="#9d2f00"/><rect x="191" y="151" width="637" height="690" rx="58" fill="url(#o)"/><path d="M810 187c41 19 55 53 55 99v456c0 43-21 79-55 93z" fill="#b03400"/><path d="M802 201c30 10 43 38 43 71v469c0 35-17 61-43 75z" fill="#fff6ed"/><path d="M802 238h37M802 770h37" stroke="#e6d1c2" stroke-width="6" opacity=".75"/><path d="M192 209c0-32 26-58 58-58h31c-33 97-34 589 0 690h-32c-32 0-57-26-57-58z" fill="#d84609"/><path d="M238 195c-18 137-18 467 0 603" stroke="#ff9a57" stroke-width="13" stroke-linecap="round" opacity=".55"/><g fill="#fff6ee" stroke="#a63100" stroke-width="2"><rect x="349" y="362" width="328" height="39" rx="13"/><rect x="349" y="443" width="328" height="39" rx="13"/><rect x="349" y="523" width="328" height="39" rx="13"/></g><path d="M222 181c137-21 425-16 547 0" stroke="#ffa76d" stroke-width="11" stroke-linecap="round" opacity=".65"/></g></svg>
